<?xml version="1.0" encoding="UTF-8"?>
<svg version="1.1" xmlns="http://www.w3.org/2000/svg" width="1024" height="1024">
<path d="M0 0 C0.81637939 0.00060425 1.63275879 0.0012085 2.47387695 0.00183105 C94.51117404 0.18460395 186.02192396 26.38647034 317.75 117.1875 C318.47960937 117.81785156 319.20921875 118.44820313 319.9609375 119.09765625 C321.90208391 120.78177339 323.8265472 122.48321226 325.75 124.1875 C326.44319336 124.79658203 327.13638672 125.40566406 327.85058594 126.03320312 C334.49462971 131.93094497 340.83917657 138.09046499 347.1184082 144.37060547 C348.80857346 146.05857855 350.50660834 147.73835724 352.20507812 149.41796875 C358.11534474 155.29859257 363.66721305 161.25450708 368.83325195 167.80932617 C370.75073823 170.18841595 372.77324751 172.40829151 374.875 174.625 C382.14863705 182.61198849 388.36304512 191.49105666 394.75 200.1875 C395.22083008 200.82204102 395.69166016 201.45658203 396.17675781 202.11035156 C410.00436716 220.74941544 421.79415357 240.75528155 432.75 261.1875 C433.52706299 262.63648682 433.52706299 262.63648682 434.31982422 264.11474609 C470.30905711 331.96595323 488.04408461 409.84658995 487.9375 486.4375 C487.93659363 487.66206909 487.93659363 487.66206909 487.93566895 488.91137695 C487.72866296 593.1515116 453.83926665 695.02619755 373.63623047 800.83032227 C371.78014747 802.98137259 369.94290116 805.14595282 368.12353516 807.328125 C361.01478427 815.81257156 353.48246229 823.76724155 345.6315918 831.56665039 C343.67844512 833.50900484 341.7363238 835.46192958 339.79492188 837.41601562 C333.45847089 843.75878921 327.08796452 849.82126371 320.03393555 855.36889648 C317.80710427 857.14203023 315.7119891 859.00295558 313.625 860.9375 C306.7053685 867.14427426 299.19338472 872.6320689 291.75 878.1875 C290.67202148 878.99477539 290.67202148 878.99477539 289.57226562 879.81835938 C219.24813877 932.25805797 134.79041489 963.98123777 37.75 973.1875 C36.51032471 973.29336426 36.51032471 973.29336426 35.24560547 973.40136719 C-68.06635667 981.87801613 -173.71158466 953.71916211 -308.14160156 864.15087891 C-309.73220976 862.79942414 -311.31358589 861.43712011 -312.89355469 860.07324219 C-315.04434607 858.21730149 -317.20866949 856.38020985 -319.390625 854.56103516 C-327.87507156 847.45228427 -335.82974155 839.91996229 -343.62915039 832.0690918 C-345.57150484 830.11594512 -347.52442958 828.1738238 -349.47851562 826.23242188 C-355.81061889 819.90658078 -361.86413831 813.5504708 -367.39477539 806.50195312 C-369.28772828 804.14043274 -371.29316263 801.94556641 -373.375 799.75 C-380.64863705 791.76301151 -386.86304512 782.88394334 -393.25 774.1875 C-393.95624512 773.23568848 -393.95624512 773.23568848 -394.67675781 772.26464844 C-446.43828367 702.49218364 -476.70308855 617.50864182 -485.25 525.1875 C-485.35586426 523.98722168 -485.35586426 523.98722168 -485.46386719 522.76269531 C-492.940243 433.95600911 -473.06640201 342.99980099 -375.58520508 177.52612305 C-373.49675185 175.05901227 -371.37805024 172.62058274 -369.25 170.1875 C-368.61964844 169.45789063 -367.98929687 168.72828125 -367.33984375 167.9765625 C-365.65572941 166.03541932 -363.95412773 164.11108836 -362.25 162.1875 C-361.33963989 161.14988525 -361.33963989 161.14988525 -360.41088867 160.09130859 C-354.47072569 153.3926618 -348.24196527 147.02549553 -341.90209961 140.70922852 C-340.1829133 138.99542767 -338.46917417 137.27630918 -336.75585938 135.55664062 C-331.08972631 129.8868238 -325.38166175 124.35855553 -319.25 119.1875 C-318.28578125 118.341875 -317.3215625 117.49625 -316.328125 116.625 C-306.67885847 108.30850509 -296.50642939 100.73464316 -286.25 93.1875 C-285.61980957 92.71957031 -284.98961914 92.25164062 -284.34033203 91.76953125 C-217.38601952 42.10299415 -136.00646375 11.95238439 0 0 Z " fill="#FEFEFE" transform="translate(511.25,24.8125)"/>
<path d="M0 0 C0.81637939 0.00060425 1.63275879 0.0012085 2.47387695 0.00183105 C94.51117404 0.18460395 186.02192396 26.38647034 317.75 117.1875 C318.47960937 117.81785156 319.20921875 118.44820313 319.9609375 119.09765625 C321.90208391 120.78177339 323.8265472 122.48321226 325.75 124.1875 C326.44319336 124.79658203 327.13638672 125.40566406 327.85058594 126.03320312 C334.49462971 131.93094497 340.83917657 138.09046499 347.1184082 144.37060547 C348.80857346 146.05857855 350.50660834 147.73835724 352.20507812 149.41796875 C358.11534474 155.29859257 363.66721305 161.25450708 368.83325195 167.80932617 C370.75073823 170.18841595 372.77324751 172.40829151 374.875 174.625 C382.14863705 182.61198849 388.36304512 191.49105666 394.75 200.1875 C395.22083008 200.82204102 395.69166016 201.45658203 396.17675781 202.11035156 C410.00436716 220.74941544 421.79415357 240.75528155 432.75 261.1875 C433.52706299 262.63648682 433.52706299 262.63648682 434.31982422 264.11474609 C470.30905711 331.96595323 488.04408461 409.84658995 487.9375 486.4375 C487.93659363 487.66206909 487.93659363 487.66206909 487.93566895 488.91137695 C487.72866296 593.1515116 453.83926665 695.02619755 373.63623047 800.83032227 C371.78014747 802.98137259 369.94290116 805.14595282 368.12353516 807.328125 C361.01478427 815.81257156 353.48246229 823.76724155 345.6315918 831.56665039 C343.67844512 833.50900484 341.7363238 835.46192958 339.79492188 837.41601562 C333.45847089 843.75878921 327.08796452 849.82126371 320.03393555 855.36889648 C317.80710427 857.14203023 315.7119891 859.00295558 313.625 860.9375 C306.7053685 867.14427426 299.19338472 872.6320689 291.75 878.1875 C290.67202148 878.99477539 290.67202148 878.99477539 289.57226562 879.81835938 C219.24813877 932.25805797 134.79041489 963.98123777 37.75 973.1875 C36.51032471 973.29336426 36.51032471 973.29336426 35.24560547 973.40136719 C-68.06635667 981.87801613 -173.71158466 953.71916211 -308.14160156 864.15087891 C-309.73220976 862.79942414 -311.31358589 861.43712011 -312.89355469 860.07324219 C-315.04434607 858.21730149 -317.20866949 856.38020985 -319.390625 854.56103516 C-327.87507156 847.45228427 -335.82974155 839.91996229 -343.62915039 832.0690918 C-345.57150484 830.11594512 -347.52442958 828.1738238 -349.47851562 826.23242188 C-355.81061889 819.90658078 -361.86413831 813.5504708 -367.39477539 806.50195312 C-369.28772828 804.14043274 -371.29316263 801.94556641 -373.375 799.75 C-380.64863705 791.76301151 -386.86304512 782.88394334 -393.25 774.1875 C-393.95624512 773.23568848 -393.95624512 773.23568848 -394.67675781 772.26464844 C-446.43828367 702.49218364 -476.70308855 617.50864182 -485.25 525.1875 C-485.35586426 523.98722168 -485.35586426 523.98722168 -485.46386719 522.76269531 C-492.940243 433.95600911 -473.06640201 342.99980099 -375.58520508 177.52612305 C-373.49675185 175.05901227 -371.37805024 172.62058274 -369.25 170.1875 C-368.61964844 169.45789063 -367.98929687 168.72828125 -367.33984375 167.9765625 C-365.65572941 166.03541932 -363.95412773 164.11108836 -362.25 162.1875 C-361.33963989 161.14988525 -361.33963989 161.14988525 -360.41088867 160.09130859 C-354.47072569 153.3926618 -348.24196527 147.02549553 -341.90209961 140.70922852 C-340.1829133 138.99542767 -338.46917417 137.27630918 -336.75585938 135.55664062 C-331.08972631 129.8868238 -325.38166175 124.35855553 -319.25 119.1875 C-318.28578125 118.341875 -317.3215625 117.49625 -316.328125 116.625 C-306.67885847 108.30850509 -296.50642939 100.73464316 -286.25 93.1875 C-285.61980957 92.71957031 -284.98961914 92.25164062 -284.34033203 91.76953125 C-217.38601952 42.10299415 -136.00646375 11.95238439 0 0 Z M-47.50292969 19.88427734 C-50.33534785 20.19692073 -53.16948934 20.45406891 -56.0078125 20.70703125 C-84.90390709 23.49614701 -113.59067768 30.55707707 -141.25 39.1875 C-142.18505371 39.47447754 -143.12010742 39.76145508 -144.08349609 40.05712891 C-194.19317644 55.54426205 -241.7746565 81.21239879 -283.25 113.1875 C-284.06500977 113.81325928 -284.06500977 113.81325928 -284.89648438 114.45166016 C-293.93523425 121.40593208 -302.70068848 128.63957197 -311.25 136.1875 C-311.75257324 136.63077637 -312.25514648 137.07405273 -312.77294922 137.53076172 C-320.66668391 144.54537978 -328.14839217 151.98469711 -335.625 159.4375 C-336.09953613 159.9093573 -336.57407227 160.3812146 -337.06298828 160.86737061 C-342.68353607 166.46382616 -348.11718565 172.14055427 -353.25 178.1875 C-354.12709454 179.19705757 -355.00466512 180.20620185 -355.8828125 181.21484375 C-393.55078185 225.20016847 -422.62624774 275.75580327 -442.25 330.1875 C-442.57162109 331.0738916 -442.89324219 331.9602832 -443.22460938 332.87353516 C-454.35097317 363.87433662 -461.71697894 396.31398013 -465.5625 429 C-465.64399292 429.69017212 -465.72548584 430.38034424 -465.80944824 431.09143066 C-467.89042958 449.03170291 -468.43657724 466.85212688 -468.43530273 484.90551758 C-468.43748534 488.35185177 -468.45570212 491.79786282 -468.47460938 495.24414062 C-468.5108105 509.34075834 -467.83975488 523.18180506 -466.25 537.1875 C-466.13644669 538.22576431 -466.13644669 538.22576431 -466.02059937 539.28500366 C-462.68107556 569.70492527 -456.34359236 599.02735389 -447.25 628.1875 C-446.92273926 629.25162109 -446.59547852 630.31574219 -446.25830078 631.41210938 C-430.64423048 681.82394444 -405.45071411 729.4195109 -373.25 771.1875 C-372.62424072 772.00250977 -372.62424072 772.00250977 -371.98583984 772.83398438 C-365.03156792 781.87273425 -357.79792803 790.63818848 -350.25 799.1875 C-349.80672363 799.69007324 -349.36344727 800.19264648 -348.90673828 800.71044922 C-341.89212022 808.60418391 -334.45280289 816.08589217 -327 823.5625 C-326.5281427 824.03703613 -326.0562854 824.51157227 -325.57012939 825.00048828 C-319.97389324 830.62081572 -314.29973589 836.05819648 -308.25 841.1875 C-307.19386487 842.10009201 -306.13786709 843.012843 -305.08203125 843.92578125 C-279.69449072 865.5692343 -252.23051771 883.74076132 -223.25 900.1875 C-222.50314941 900.61272949 -221.75629883 901.03795898 -220.98681641 901.47607422 C-169.98609581 930.24602606 -110.35062674 948.2787945 -52.25 954.1875 C-51.29834961 954.29046387 -50.34669922 954.39342773 -49.36621094 954.49951172 C-32.43458573 956.26287446 -15.50728956 956.39506972 1.5 956.4375 C3.10470154 956.44540054 3.10470154 956.44540054 4.74182129 956.45346069 C40.66654056 956.5901181 75.68733385 951.64348671 110.75 944.1875 C111.81009277 943.96255859 112.87018555 943.73761719 113.96240234 943.50585938 C142.0640588 937.32967114 170.14735787 926.63222223 196.14208984 914.41064453 C198.64301126 913.23767914 201.15635024 912.09739475 203.67578125 910.96484375 C229.56395454 899.19725 253.80125538 883.90916591 276.75 867.1875 C277.77287109 866.445 277.77287109 866.445 278.81640625 865.6875 C288.52149596 858.61585968 297.73544323 851.11618486 306.75 843.1875 C307.50796875 842.53007813 308.2659375 841.87265625 309.046875 841.1953125 C310.95767836 839.53673519 312.85470226 837.86376837 314.75 836.1875 C315.45713135 835.56520508 316.1642627 834.94291016 316.89282227 834.30175781 C323.11391014 828.77218782 329.07591687 823.01707122 334.9465332 817.12133789 C336.44304925 815.61943075 337.944883 814.12298938 339.44726562 812.62695312 C344.75813433 807.32013046 349.89928348 801.92276361 354.75 796.1875 C355.66245615 795.13124749 356.57520073 794.07524406 357.48828125 793.01953125 C379.13638629 767.62653399 397.27841346 740.16022031 413.75 711.1875 C414.15347656 710.47883789 414.55695312 709.77017578 414.97265625 709.04003906 C430.36659197 681.7598264 441.4377482 652.01718936 450.75 622.1875 C451.0500293 621.23182129 451.35005859 620.27614258 451.65917969 619.29150391 C459.88357407 592.68554325 465.02251453 564.88520508 467.75 537.1875 C467.91868194 535.65844514 468.08738506 534.12939262 468.25610352 532.6003418 C469.87050083 517.31176502 470.1057891 502.11388934 470.0625 486.75 C470.06076279 484.83702621 470.06076279 484.83702621 470.05899048 482.88540649 C470.02657585 464.82423228 469.60447925 447.04231026 467.15136719 429.13183594 C466.77976722 426.40586537 466.46279916 423.6800632 466.1640625 420.9453125 C463.05699853 394.30028072 456.00141435 367.64807391 447.75 342.1875 C447.43595215 341.21103516 447.1219043 340.23457031 446.79833984 339.22851562 C430.88516838 290.27758942 406.16627661 243.93798443 374.75 203.1875 C374.33282715 202.64416016 373.9156543 202.10082031 373.48583984 201.54101562 C366.53156792 192.50226575 359.29792803 183.73681152 351.75 175.1875 C351.30672363 174.68492676 350.86344727 174.18235352 350.40673828 173.66455078 C343.39212022 165.77081609 335.95280289 158.28910783 328.5 150.8125 C328.0281427 150.33796387 327.5562854 149.86342773 327.07012939 149.37451172 C321.47367384 143.75396393 315.79694573 138.32031435 309.75 133.1875 C308.74044243 132.31040546 307.73129815 131.43283488 306.72265625 130.5546875 C281.53470528 108.98433486 254.11425824 90.65827234 225.16943359 74.53662109 C223.67177565 73.70149922 222.17674973 72.86161394 220.68603516 72.01416016 C192.1959951 55.83472085 160.32321644 43.67576049 128.75 35.1875 C127.79399902 34.92372559 126.83799805 34.65995117 125.85302734 34.38818359 C103.30231544 28.18267572 80.70503358 23.76655448 57.5 20.9375 C56.82016052 20.85432526 56.14032104 20.77115051 55.43988037 20.68545532 C37.55754353 18.52581968 19.9277352 17.9838695 1.9375 18 C0.80105042 18.00027191 -0.33539917 18.00054382 -1.50628662 18.00082397 C-16.90365488 18.0177901 -32.18508743 18.16393248 -47.50292969 19.88427734 Z " fill="#AAAAAA" transform="translate(511.25,24.8125)"/>
<path d="M0 0 C46.7342581 0 46.7342581 0 55.59375 8.37890625 C59.73305177 13.15060135 60.56155226 18.33681389 60.34765625 24.4375 C59.5415379 30.37922624 57.59491174 34.69803123 52.9375 38.5 C50 40 50 40 47 41 C47.66386719 41.35191406 48.32773437 41.70382812 49.01171875 42.06640625 C55.21033745 45.53220328 60.25015667 48.75047001 62.60546875 55.81640625 C64.36099198 65.53261897 63.17054878 72.88621164 58.0625 81.125 C53.23502957 86.63156413 44.89521175 88.62095765 38 90 C25.46 90 12.92 90 0 90 C0 60.3 0 30.6 0 0 Z " fill="#474747" transform="translate(623,559)"/>
<path d="M0 0 C5.94 0 11.88 0 18 0 C25.84592626 19.14406007 32.90265643 38.56907709 40 58 C41.88085265 55.17872103 42.95725885 52.76311977 44.15478516 49.6105957 C44.57506989 48.50968094 44.99535461 47.40876617 45.42837524 46.27449036 C45.87740204 45.08691635 46.32642883 43.89934235 46.7890625 42.67578125 C47.48399307 40.85097481 47.48399307 40.85097481 48.19296265 38.98930359 C49.42265504 35.76014865 50.64785771 32.52930826 51.87213135 29.2980957 C53.12298314 25.99913254 54.37807611 22.70178406 55.6328125 19.40429688 C58.09269397 12.93777033 60.54744233 6.46930774 63 0 C69.27 0 75.54 0 82 0 C82 29.7 82 59.4 82 90 C78.04 90 74.08 90 70 90 C69.67 64.92 69.34 39.84 69 14 C61.74 33.14 54.48 52.28 47 72 C42.71 72 38.42 72 34 72 C33.65332275 71.06542969 33.30664551 70.13085938 32.94946289 69.16796875 C31.61346112 65.56673711 30.27689236 61.96571609 28.94018555 58.36474609 C28.37102989 56.83127135 27.80201108 55.2977458 27.2331543 53.76416016 C22.18810557 40.16368089 17.09347403 26.5825974 12 13 C11.67 38.08 11.34 63.16 11 89 C7.37 89 3.74 89 0 89 C0 59.63 0 30.26 0 0 Z " fill="#484848" transform="translate(476,409)"/>
<path d="M0 0 C8.38140423 4.43541465 12.13993098 9.73906739 16.0625 18.3125 C17.61044803 23.38550491 17.32711875 28.61763821 17.375 33.875 C17.40400391 34.90947266 17.43300781 35.94394531 17.46289062 37.00976562 C17.5418645 46.71140268 15.26791794 55.64698372 9.0625 63.3125 C2.52340816 69.56096553 -2.43136512 71.48422628 -11.3125 71.8125 C-20.20947355 71.60192074 -25.40808103 69.08274335 -31.6875 62.9375 C-39.52627333 53.16187359 -41.19557917 40.43895706 -40.18115234 28.31982422 C-39.13183291 19.67503021 -36.29047511 11.4425637 -29.9375 5.3125 C-21.04431234 -1.63149585 -10.94150902 -4.62264776 0 0 Z " fill="#FDFDFD" transform="translate(350.9375,418.6875)"/>
<path d="M0 0 C4.62 0 9.24 0 14 0 C18.03396731 8.70856466 21.39183296 17.66341866 24.8125 26.625 C25.80224816 29.21220102 26.79259202 31.79917341 27.78303528 34.3861084 C28.46820738 36.17579368 29.15308967 37.96558995 29.83769226 39.75549316 C32.31285928 46.22205646 34.81203082 52.6790318 37.3203125 59.1328125 C38.35740891 61.80704923 39.39405345 64.48146061 40.43051147 67.15594482 C41.10038694 68.8815791 41.77195007 70.60655922 42.44522095 72.33087158 C43.38339444 74.73446909 44.31539803 77.14037413 45.24609375 79.546875 C45.52659576 80.26070343 45.80709778 80.97453186 46.09609985 81.70999146 C47.21882156 84.6280288 48 86.84364867 48 90 C44.04 90 40.08 90 36 90 C28 70.28571429 28 70.28571429 28 67 C14.47 67.33 0.94 67.66 -13 68 C-15.64 75.26 -18.28 82.52 -21 90 C-25.29 90 -29.58 90 -34 90 C-32.09408618 83.42399753 -29.97611279 77.03706635 -27.48046875 70.6640625 C-26.97709991 69.36500473 -26.97709991 69.36500473 -26.46356201 68.03970337 C-25.37514441 65.2333876 -24.28139064 62.42918637 -23.1875 59.625 C-22.43073536 57.67688815 -21.67431013 55.72864442 -20.91821289 53.78027344 C-18.99266687 48.82092592 -17.06271524 43.86330584 -15.1315918 38.90612793 C-13.34025142 34.30564894 -11.55300295 29.70358208 -9.765625 25.1015625 C-6.51458203 16.73274963 -3.25856465 8.36588705 0 0 Z " fill="#4A4A4A" transform="translate(370,559)"/>
<path d="M0 0 C2.53833008 0.02286784 5.07666016 0.04573568 7.61499023 0.06860352 C8.67919189 0.07819092 9.74339355 0.08777832 10.83984375 0.09765625 C16.51944388 14.12921665 21.9607754 28.2374968 27.27734375 42.41015625 C32.25602605 55.6557155 37.23498345 68.89677971 42.50366211 82.03051758 C44.83984375 87.89490676 44.83984375 87.89490676 44.83984375 90.09765625 C40.54984375 90.09765625 36.25984375 90.09765625 31.83984375 90.09765625 C30.66746988 86.82876686 29.50174387 83.55776681 28.33984375 80.28515625 C28.00597656 79.35638672 27.67210937 78.42761719 27.328125 77.47070312 C27.01230469 76.57802734 26.69648437 75.68535156 26.37109375 74.765625 C26.07783203 73.94344482 25.78457031 73.12126465 25.48242188 72.27416992 C24.83984375 70.09765625 24.83984375 70.09765625 24.83984375 67.09765625 C10.97984375 67.09765625 -2.88015625 67.09765625 -17.16015625 67.09765625 C-18.15015625 70.72765625 -19.14015625 74.35765625 -20.16015625 78.09765625 C-21.43079567 82.12205602 -22.79723421 86.10288474 -24.16015625 90.09765625 C-28.45015625 90.09765625 -32.74015625 90.09765625 -37.16015625 90.09765625 C-36.4329482 86.46161598 -35.68954629 83.55965302 -34.40112305 80.15673828 C-34.03912811 79.19508759 -33.67713318 78.23343689 -33.3041687 77.24264526 C-32.71274582 75.68974289 -32.71274582 75.68974289 -32.109375 74.10546875 C-31.69881866 73.01855743 -31.28826233 71.93164612 -30.86526489 70.8117981 C-29.53006911 67.28055207 -28.18910479 63.75153123 -26.84765625 60.22265625 C-25.93366123 57.81093934 -25.01984318 55.39915535 -24.10620117 52.98730469 C-19.09212601 39.76251603 -14.06044929 26.54427975 -8.97265625 13.34765625 C-8.72526703 12.70395081 -8.47787781 12.06024536 -8.22299194 11.39703369 C-7.54483947 9.63464529 -6.86241135 7.87390381 -6.1796875 6.11328125 C-5.80948486 5.15711914 -5.43928223 4.20095703 -5.05786133 3.21582031 C-3.74398979 0.11569808 -3.74398979 0.11569808 0 0 Z " fill="#4A4A4A" transform="translate(565.16015625,558.90234375)"/>
<path d="M0 0 C2.53833008 0.02286784 5.07666016 0.04573568 7.61499023 0.06860352 C8.67919189 0.07819092 9.74339355 0.08777832 10.83984375 0.09765625 C16.51944388 14.12921665 21.9607754 28.2374968 27.27734375 42.41015625 C32.25602605 55.6557155 37.23498345 68.89677971 42.50366211 82.03051758 C44.83984375 87.89490676 44.83984375 87.89490676 44.83984375 90.09765625 C40.54984375 90.09765625 36.25984375 90.09765625 31.83984375 90.09765625 C30.66746988 86.82876686 29.50174387 83.55776681 28.33984375 80.28515625 C28.00597656 79.35638672 27.67210937 78.42761719 27.328125 77.47070312 C27.01230469 76.57802734 26.69648438 75.68535156 26.37109375 74.765625 C26.07783203 73.94344482 25.78457031 73.12126465 25.48242188 72.27416992 C24.83984375 70.09765625 24.83984375 70.09765625 24.83984375 67.09765625 C10.97984375 67.09765625 -2.88015625 67.09765625 -17.16015625 67.09765625 C-18.15015625 70.72765625 -19.14015625 74.35765625 -20.16015625 78.09765625 C-21.43079567 82.12205602 -22.79723421 86.10288474 -24.16015625 90.09765625 C-28.45015625 90.09765625 -32.74015625 90.09765625 -37.16015625 90.09765625 C-36.4900373 86.74706149 -35.90198344 84.12161135 -34.72412109 81.01806641 C-34.43173553 80.24204071 -34.13934998 79.46601501 -33.83810425 78.66647339 C-33.51899078 77.83165436 -33.19987732 76.99683533 -32.87109375 76.13671875 C-32.36764938 74.80605881 -32.36764938 74.80605881 -31.85403442 73.44851685 C-30.75170734 70.53837461 -29.64362767 67.6304631 -28.53515625 64.72265625 C-27.77127147 62.71134387 -27.00760178 60.69994978 -26.24414062 58.68847656 C-24.27794221 53.51264386 -22.30591705 48.33905417 -20.3314209 43.16638184 C-19.18783585 40.1701771 -18.04546935 37.1735102 -16.90332031 34.17675781 C-15.15482317 29.59093352 -13.40258284 25.00655862 -11.64678955 20.42352295 C-10.98945155 18.70736858 -10.33283431 16.99093796 -9.67694092 15.27423096 C-8.76786228 12.89659159 -7.85522339 10.52035274 -6.94140625 8.14453125 C-6.67240509 7.43942413 -6.40340393 6.73431702 -6.12625122 6.00784302 C-3.85274209 0.11905878 -3.85274209 0.11905878 0 0 Z " fill="#4A4A4A" transform="translate(221.16015625,558.90234375)"/>
<path d="M0 0 C4.95 0 9.9 0 15 0 C20.27511826 13.61556122 25.53823575 27.23572318 30.78973389 40.8604126 C31.59109718 42.939253 32.39272918 45.01798983 33.19464111 47.09661865 C35.46843813 52.99095584 37.73701074 58.88725033 39.99755859 64.78668213 C40.70690399 66.63562294 41.41800185 68.48389238 42.13085938 70.33148193 C43.12453092 72.90800186 44.11189111 75.48685297 45.09765625 78.06640625 C45.39370255 78.83002975 45.68974884 79.59365326 45.99476624 80.38041687 C47.13988313 83.39394739 48 85.74724754 48 89 C44.04 89 40.08 89 36 89 C34.84905371 86.10610633 33.70410507 83.21007685 32.5625 80.3125 C32.23701172 79.49587891 31.91152344 78.67925781 31.57617188 77.83789062 C31.26357422 77.04189453 30.95097656 76.24589844 30.62890625 75.42578125 C30.34088135 74.69786377 30.05285645 73.96994629 29.75610352 73.2199707 C29 71 29 71 28 66 C14.47 66 0.94 66 -13 66 C-13.33 67.98 -13.66 69.96 -14 72 C-14.42901126 73.44769622 -14.89678163 74.88471514 -15.41015625 76.3046875 C-15.67763672 77.05234375 -15.94511719 77.8 -16.22070312 78.5703125 C-16.49849609 79.33085937 -16.77628906 80.09140625 -17.0625 80.875 C-17.48499023 82.050625 -17.48499023 82.050625 -17.91601562 83.25 C-18.60613782 85.16830576 -19.30244316 87.08438519 -20 89 C-24.29 89 -28.58 89 -33 89 C-30.76858134 81.19480752 -28.07692966 73.65352657 -25.17578125 66.07421875 C-24.71068649 64.85080276 -24.24559174 63.62738678 -23.7664032 62.36689758 C-22.53467413 59.12702127 -21.29878131 55.88874947 -20.06195068 52.65081787 C-18.8310951 49.42637521 -17.60418443 46.20043278 -16.37695312 42.97460938 C-14.0268804 36.7991905 -11.67257926 30.62539125 -9.31695557 24.4520874 C-7.3070613 19.18362515 -5.29997455 13.91409438 -3.29296875 8.64453125 C-2.64608624 6.9463671 -1.999196 5.2482059 -1.35229492 3.55004883 C-0.9060376 2.37853271 -0.45978027 1.2070166 0 0 Z " fill="#484848" transform="translate(604,409)"/>
<path d="M0 0 C5.28 0 10.56 0 16 0 C19.13867103 3.70132695 20.31597807 5.6851394 22 10 C22.98437498 11.90017997 23.98752248 13.79073537 25.0078125 15.671875 C26.0494592 17.69658927 27.08842593 19.72268406 28.125 21.75 C32.84937614 30.92132896 37.67677303 40.02308893 42.68994141 49.04003906 C47.04565614 56.92627392 50.95625955 64.91251909 55 73 C55.33 48.91 55.66 24.82 56 0 C59.63 0 63.26 0 67 0 C67 29.37 67 58.74 67 89 C61.72 89 56.44 89 51 89 C44.75980182 77.97048494 38.7923609 66.82372058 32.97998047 55.56298828 C28.75376791 47.39596648 24.3995029 39.30643564 19.95751953 31.25488281 C19.49587402 30.41666992 19.03422852 29.57845703 18.55859375 28.71484375 C18.15954834 27.99417725 17.76050293 27.27351074 17.34936523 26.53100586 C15.4970786 23.05666978 13.76079397 19.52158794 12 16 C11.67 40.09 11.34 64.18 11 89 C7.37 89 3.74 89 0 89 C0 59.63 0 30.26 0 0 Z " fill="#454545" transform="translate(212,409)"/>
<path d="M0 0 C10.23239519 6.52756245 16.13616776 16.5932302 18.8125 28.3125 C20.21648896 44.12870717 19.77977761 60.10250624 9.7265625 73.12890625 C1.33005691 82.70777691 -7.05622061 86.70441262 -19.765625 87.55078125 C-31.8223229 87.79448046 -41.17627301 85.57915527 -50.1875 77.3125 C-59.91035992 67.88849848 -63.34911715 56.68975719 -63.56811523 43.35839844 C-63.53730514 28.01765122 -61.48581549 16.05259066 -50.4609375 4.50390625 C-36.42704095 -8.34447849 -16.21691497 -8.93634804 0 0 Z M-42.5625 12.625 C-50.83914195 23.42671915 -52.59126486 36.04560332 -51.1875 49.3125 C-49.31496191 59.90874648 -44.78967345 67.9664923 -36.421875 74.7421875 C-30.13334744 78.70669401 -22.30383829 78.16916586 -15.1875 77.3125 C-8.25299834 75.25850606 -3.05756151 71.41482269 0.8125 65.3125 C5.20810809 56.95943124 6.04013485 50.04529692 6.125 40.6875 C6.15400391 39.64464844 6.18300781 38.60179687 6.21289062 37.52734375 C6.29942878 26.86318081 3.12677519 18.17261663 -4.1875 10.3125 C-15.82893465 1.09636423 -32.34470835 1.51538115 -42.5625 12.625 Z " fill="#474747" transform="translate(362.1875,412.6875)"/>
<path d="M0 0 C0 4.29 0 8.58 0 13 C-1.07378906 12.44570313 -2.14757812 11.89140625 -3.25390625 11.3203125 C-4.68993891 10.58821742 -6.12614618 9.85646477 -7.5625 9.125 C-8.26697266 8.76019531 -8.97144531 8.39539063 -9.69726562 8.01953125 C-19.7786649 2.90914452 -30.02079599 1.2020064 -41.20703125 3.72265625 C-48.70076486 6.25473861 -53.88727156 9.56938042 -57.75 16.625 C-63.65627628 29.48207088 -63.75339945 44.76244535 -59 58 C-55.30269487 65.76307021 -50.09600729 70.21678701 -42.05859375 73.23828125 C-30.98984428 75.99486637 -19.82748843 73.70687211 -9 71 C-9 62.75 -9 54.5 -9 46 C-15.6 46 -22.2 46 -29 46 C-29 42.7 -29 39.4 -29 36 C-18.44 36 -7.88 36 3 36 C3.2302668 41.44964763 3.42889735 46.88235987 3.54931641 52.33300781 C3.59949672 54.18417589 3.66766395 56.03494965 3.75439453 57.88476562 C4.45702502 73.25997394 4.45702502 73.25997394 0.89208984 77.51733398 C-1.72902998 79.11611535 -4.06781812 80.11405437 -7 81 C-8.54239765 81.60229806 -10.08420827 82.20610548 -11.625 82.8125 C-24.67676335 87.06850979 -41.23094013 86.68194574 -53.54296875 80.78125 C-63.85752682 75.16363895 -70.11371825 67.00835174 -74 56 C-75.37681042 50.15909886 -75.26222267 44.34794724 -75.3125 38.375 C-75.34150391 37.24964844 -75.37050781 36.12429688 -75.40039062 34.96484375 C-75.49116132 22.88535854 -71.93776706 13.15416358 -64 4 C-46.34356949 -12.59391964 -20.15327502 -11.28583401 0 0 Z " fill="#494949" transform="translate(734,415)"/>
<path d="M0 0 C18.48 0 36.96 0 56 0 C56 3.3 56 6.6 56 10 C41.48 10 26.96 10 12 10 C12 18.58 12 27.16 12 36 C26.19 36 40.38 36 55 36 C55 39.63 55 43.26 55 47 C40.81 47 26.62 47 12 47 C12 57.56 12 68.12 12 79 C26.85 79 41.7 79 57 79 C57 82.3 57 85.6 57 89 C38.19 89 19.38 89 0 89 C0 59.63 0 30.26 0 0 Z " fill="#484848" transform="translate(759,409)"/>
<path d="M0 0 C18.48 0 36.96 0 56 0 C56 3.3 56 6.6 56 10 C41.48 10 26.96 10 12 10 C12 18.91 12 27.82 12 37 C26.19 37 40.38 37 55 37 C55 40.3 55 43.6 55 47 C40.81 47 26.62 47 12 47 C12 57.89 12 68.78 12 80 C26.85 80 41.7 80 57 80 C57 82.97 57 85.94 57 89 C38.19 89 19.38 89 0 89 C0 59.63 0 30.26 0 0 Z " fill="#454545" transform="translate(776,559)"/>
<path d="M0 0 C4.29 0 8.58 0 13 0 C16.37615526 8.80872687 19.74665455 17.61959266 23.1103363 26.43309021 C24.73422056 30.68750798 26.36004436 34.9411663 27.98974609 39.19335938 C29.62142807 43.45108875 31.24812862 47.71069154 32.871521 51.97158813 C33.49838273 53.6143302 34.12700231 55.25640257 34.75738525 56.89779663 C35.64107273 59.19965668 36.51852085 61.50380318 37.39453125 63.80859375 C37.65952927 64.49459656 37.92452728 65.18059937 38.19755554 65.88739014 C39.27907545 68.7498224 40 70.91069544 40 74 C40.66 74 41.32 74 42 74 C42.09804932 73.19272461 42.19609863 72.38544922 42.29711914 71.55371094 C43.15940403 67.19406563 44.63918432 63.27344567 46.24609375 59.140625 C46.73675072 57.8587883 46.73675072 57.8587883 47.23731995 56.55105591 C48.29872483 53.78195979 49.36801411 51.01598387 50.4375 48.25 C51.16651895 46.35256961 51.89503281 44.45494508 52.62304688 42.55712891 C54.41489954 37.88955588 56.21290796 33.22438405 58.01287842 28.55993652 C59.44091026 24.85657217 60.86337306 21.15107933 62.28515625 17.4453125 C64.51805944 11.62812367 66.7566932 5.81318445 69 0 C73.29 0 77.58 0 82 0 C76.86916049 14.9447458 71.21719981 29.68469153 65.5625 44.4375 C64.63718205 46.85735009 63.71205078 49.27727158 62.78710938 51.69726562 C57.89820021 64.48055287 52.98102393 77.25231109 48 90 C43.38 90 38.76 90 34 90 C33.43192627 88.51193848 32.86385254 87.02387695 32.27856445 85.49072266 C30.58251452 81.04798516 28.88636894 76.6052842 27.19018555 72.16259766 C25.50901311 67.75920648 23.82800527 63.3557526 22.1472559 58.95219994 C17.67544048 47.23629851 13.2030472 35.52063971 8.7109375 23.8125 C8.09853935 22.21533666 7.48615273 20.61816891 6.8737793 19.02099609 C5.77026018 16.14302705 4.6646272 13.26588192 3.55786133 10.38916016 C3.07364905 9.12665883 2.58951265 7.86412839 2.10546875 6.6015625 C1.69449951 5.53244629 1.28353027 4.46333008 0.86010742 3.36181641 C0 1 0 1 0 0 Z " fill="#484848" transform="translate(260,559)"/>
<path d="M0 0 C4.29 0 8.58 0 13 0 C13 26.07 13 52.14 13 79 C27.52 79 42.04 79 57 79 C57 82.63 57 86.26 57 90 C38.19 90 19.38 90 0 90 C0 60.3 0 30.6 0 0 Z " fill="#515151" transform="translate(467,559)"/>
<path d="M0 0 C3.96 0 7.92 0 12 0 C12 26.07 12 52.14 12 79 C26.52 79 41.04 79 56 79 C56 82.63 56 86.26 56 90 C37.52 90 19.04 90 0 90 C0 60.3 0 30.6 0 0 Z " fill="#4A4A4A" transform="translate(707,559)"/>
<path d="M0 0 C4.29 0 8.58 0 13 0 C13 29.7 13 59.4 13 90 C8.71 90 4.42 90 0 90 C0 60.3 0 30.6 0 0 Z " fill="#515151" transform="translate(431,559)"/>
<path d="M0 0 C4.29 0 8.58 0 13 0 C13 29.7 13 59.4 13 90 C8.71 90 4.42 90 0 90 C0 60.3 0 30.6 0 0 Z " fill="#515151" transform="translate(439,409)"/>
<path d="M0 0 C4.29 -0.0825 8.58 -0.165 13 -0.25 C14.33675781 -0.28641602 15.67351563 -0.32283203 17.05078125 -0.36035156 C23.79833602 -0.42297857 29.55190185 -0.34935213 35 4 C39.02229506 8.72320985 38.48819599 13.73452895 38.3515625 19.671875 C37.88077656 24.12864856 37.14805083 25.85194917 34 29 C29.05230026 32.67905878 24.29485787 33.12991903 18.26171875 33.09765625 C17.29967529 33.09515869 16.33763184 33.09266113 15.34643555 33.09008789 C14.13898682 33.08098389 12.93153809 33.07187988 11.6875 33.0625 C7.830625 33.041875 3.97375 33.02125 0 33 C0 22.11 0 11.22 0 0 Z " fill="#FCFCFC" transform="translate(635,606)"/>
<path d="M0 0 C5.6615625 -0.12375 5.6615625 -0.12375 11.4375 -0.25 C12.60853271 -0.28641602 13.77956543 -0.32283203 14.98608398 -0.36035156 C21.66965744 -0.43048469 27.33873614 0.18998146 33 4 C36.12428954 8.68643432 35.69512591 13.51864257 35 19 C33.71191779 22.01894268 32.67164838 22.83994386 30 25 C23.74203634 27.42995398 17.70478119 27.23136686 11.0625 27.125 C7.411875 27.08375 3.76125 27.0425 0 27 C0 18.09 0 9.18 0 0 Z " fill="#FDFDFD" transform="translate(635,569)"/>
<path d="M0 0 C3.30087107 3.73619881 4.6877033 8.01935752 6.35546875 12.6328125 C6.81521843 13.88238235 6.81521843 13.88238235 7.28425598 15.15719604 C7.92861077 16.91271343 8.56971322 18.66942756 9.20776367 20.42724609 C10.18747945 23.1249434 11.17784273 25.81854671 12.16992188 28.51171875 C12.79489909 30.21852008 13.41926925 31.92554385 14.04296875 33.6328125 C14.3397905 34.44114532 14.63661224 35.24947815 14.94242859 36.08230591 C17 41.76766735 17 41.76766735 17 44 C6.44 44 -4.12 44 -15 44 C-13.875 37.25 -13.875 37.25 -12.60131836 33.83056641 C-12.32110336 33.07023102 -12.04088837 32.30989563 -11.75218201 31.52651978 C-11.45111038 30.72628387 -11.15003876 29.92604797 -10.83984375 29.1015625 C-10.53051407 28.26660248 -10.22118439 27.43164246 -9.90248108 26.57138062 C-8.91916799 23.92069166 -7.92845527 21.27284017 -6.9375 18.625 C-6.26708675 16.8217972 -5.59715955 15.0184136 -4.92773438 13.21484375 C-3.29077649 8.80778273 -1.64717934 4.40325032 0 0 Z " fill="#FAFAFA" transform="translate(611,421)"/>
<path d="M0 0 C2.33590582 2.10920991 3.54812626 3.84820099 4.62573242 6.79711914 C4.90579636 7.55122574 5.18586029 8.30533234 5.47441101 9.08229065 C5.76516006 9.8917363 6.05590912 10.70118195 6.35546875 11.53515625 C6.66196854 12.36961777 6.96846832 13.20407928 7.28425598 14.06382751 C7.92934976 15.82505471 8.57042856 17.58775698 9.20776367 19.35180664 C10.18618499 22.05886167 11.17694717 24.7611443 12.16992188 27.46289062 C12.79499734 29.17421398 13.41937059 30.88579402 14.04296875 32.59765625 C14.3397905 33.40912613 14.63661224 34.22059601 14.94242859 35.05665588 C17 40.76655917 17 40.76655917 17 43 C6.44 43 -4.12 43 -15 43 C-13.87494307 36.24965842 -13.87494307 36.24965842 -12.70898438 33.13769531 C-12.45201782 32.44387756 -12.19505127 31.75005981 -11.93029785 31.03521729 C-11.65423706 30.30687683 -11.37817627 29.57853638 -11.09375 28.828125 C-10.66660706 27.68268219 -10.66660706 27.68268219 -10.23083496 26.51409912 C-9.32561123 24.09080564 -8.41278774 21.67045299 -7.5 19.25 C-6.88624634 17.60824945 -6.27296023 15.96632402 -5.66015625 14.32421875 C-1.19331063 2.38662126 -1.19331063 2.38662126 0 0 Z " fill="#FAFAFA" transform="translate(224,572)"/>
<path d="M0 0 C2.33590582 2.10920991 3.54812626 3.84820099 4.62573242 6.79711914 C4.90579636 7.55122574 5.18586029 8.30533234 5.47441101 9.08229065 C5.76516006 9.8917363 6.05590912 10.70118195 6.35546875 11.53515625 C6.66196854 12.36961777 6.96846832 13.20407928 7.28425598 14.06382751 C7.92934976 15.82505471 8.57042856 17.58775698 9.20776367 19.35180664 C10.18618499 22.05886167 11.17694717 24.7611443 12.16992188 27.46289062 C12.79499734 29.17421398 13.41937059 30.88579402 14.04296875 32.59765625 C14.3397905 33.40912613 14.63661224 34.22059601 14.94242859 35.05665588 C17 40.76655917 17 40.76655917 17 43 C6.44 43 -4.12 43 -15 43 C-13.87494307 36.24965842 -13.87494307 36.24965842 -12.70898438 33.13769531 C-12.45201782 32.44387756 -12.19505127 31.75005981 -11.93029785 31.03521729 C-11.65423706 30.30687683 -11.37817627 29.57853638 -11.09375 28.828125 C-10.66660706 27.68268219 -10.66660706 27.68268219 -10.23083496 26.51409912 C-9.32561123 24.09080564 -8.41278774 21.67045299 -7.5 19.25 C-6.88624634 17.60824945 -6.27296023 15.96632402 -5.66015625 14.32421875 C-1.19331063 2.38662126 -1.19331063 2.38662126 0 0 Z " fill="#FAFAFA" transform="translate(568,572)"/>
<path d="M0 0 C0.66 0 1.32 0 2 0 C3.49434411 3.92824358 4.98761874 7.85689167 6.47998047 11.78588867 C6.98588455 13.11737561 7.49206109 14.44875907 7.99853516 15.7800293 C9.67374643 20.18367874 11.33947381 24.59079075 13 29 C13.41314453 30.08845215 13.82628906 31.1769043 14.25195312 32.29833984 C14.61740234 33.27625488 14.98285156 34.25416992 15.359375 35.26171875 C15.67874023 36.11080811 15.99810547 36.95989746 16.32714844 37.8347168 C17 40 17 40 17 43 C6.77 43 -3.46 43 -14 43 C-12.875 35.125 -12.875 35.125 -11.69311523 31.90063477 C-11.30282387 30.82030724 -11.30282387 30.82030724 -10.90464783 29.71815491 C-10.48585106 28.59116432 -10.48585106 28.59116432 -10.05859375 27.44140625 C-9.77146011 26.65225327 -9.48432648 25.86310028 -9.18849182 25.05003357 C-8.27786274 22.5518069 -7.35785252 20.05715873 -6.4375 17.5625 C-5.81513013 15.86025445 -5.19337896 14.15778256 -4.57226562 12.45507812 C-3.05532054 8.30073328 -1.52995743 4.14956937 0 0 Z " fill="#FAFAFA" transform="translate(376,572)"/>
<path d="M0 0 C0.33 0 0.66 0 1 0 C1 25.41 1 50.82 1 77 C0.67 77 0.34 77 0 77 C-0.01030746 76.1296965 -0.02061493 75.25939301 -0.03123474 74.36271667 C-0.12915391 66.16669156 -0.23166045 57.97073948 -0.33933926 49.77483654 C-0.39453751 45.56109924 -0.44795259 41.34735496 -0.49731445 37.13354492 C-0.54500366 33.06809236 -0.59734816 29.00272411 -0.65294075 24.93737221 C-0.67334364 23.38523771 -0.69206014 21.83308011 -0.70907402 20.28090477 C-0.73316378 18.10930395 -0.76321199 15.93786213 -0.79467773 13.76635742 C-0.81022202 12.52947678 -0.8257663 11.29259613 -0.84178162 10.01823425 C-0.868297 6.95155636 -0.868297 6.95155636 -2 4 C-1.0625 1.8125 -1.0625 1.8125 0 0 Z " fill="#DADADA" transform="translate(545,421)"/>
</svg>
